<?xml version="1.0" encoding="UTF-8" standalone="no"?>
<svg
   xmlns:dc="http://purl.org/dc/elements/1.1/"
   xmlns:cc="http://creativecommons.org/ns#"
   xmlns:rdf="http://www.w3.org/1999/02/22-rdf-syntax-ns#"
   xmlns:svg="http://www.w3.org/2000/svg"
   xmlns="http://www.w3.org/2000/svg"
   xmlns:sodipodi="http://sodipodi.sourceforge.net/DTD/sodipodi-0.dtd"
   xmlns:inkscape="http://www.inkscape.org/namespaces/inkscape"
   width="32px"
   height="32px"
   viewBox="0 0 32 32"
   version="1.1"
   id="svg849"
   sodipodi:docname="nuget.svg"
   inkscape:version="1.0beta1 (fe3e306, 2019-09-17)">
  <metadata
     id="metadata855">
    <rdf:RDF>
      <cc:Work
         rdf:about="">
        <dc:format>image/svg+xml</dc:format>
        <dc:type
           rdf:resource="http://purl.org/dc/dcmitype/StillImage" />
      </cc:Work>
    </rdf:RDF>
  </metadata>
  <defs
     id="defs853" />
  <sodipodi:namedview
     pagecolor="#ffffff"
     bordercolor="#666666"
     inkscape:document-rotation="0"
     borderopacity="1"
     objecttolerance="10"
     gridtolerance="10"
     guidetolerance="10"
     inkscape:pageopacity="0"
     inkscape:pageshadow="2"
     inkscape:window-width="3440"
     inkscape:window-height="1377"
     id="namedview851"
     showgrid="false"
     inkscape:zoom="90.509668"
     inkscape:cx="14.819358"
     inkscape:cy="12.049964"
     inkscape:window-x="-8"
     inkscape:window-y="-8"
     inkscape:window-maximized="1"
     inkscape:current-layer="layer1" />
  <g
     id="g847"
     transform="matrix(0.33012412,0,0,0.33012412,-101.73368,-64.047227)" />
  <g
     style="display:inline"
     inkscape:label="Main"
     id="layer1"
     inkscape:groupmode="layer">
    <g
       sodipodi:insensitive="true"
       style="display:inline"
       inkscape:label="Temp"
       id="layer2"
       inkscape:groupmode="layer">
      <path
         sodipodi:nodetypes="cssccccsccsccscccccccccsccssccsccscccccccsccccssssccsscccccscsccsscccscccccsccscscc"
         d="m 346.84378,290.68769 c -4.18951,-0.76017 -8.64232,-2.73562 -12.18713,-5.40671 -5.23,-3.94092 -8.71921,-9.24902 -10.611,-16.14241 l -0.69516,-2.53306 -0.005,-16.13959 c -0.006,-18.03938 0.0129,-18.27008 1.88839,-22.97965 1.71027,-4.29482 3.70059,-7.22158 7.13405,-10.49061 4.50465,-4.28891 10.05099,-6.90711 16.23295,-7.66292 2.93839,-0.35925 28.56835,-0.36049 31.43115,-0.002 11.00033,1.37933 20.18074,8.88154 23.78724,19.43888 1.32639,3.88277 1.40939,5.14827 1.40939,21.49049 0,14.29499 -0.0325,15.36283 -0.54348,17.87037 -1.20704,5.92301 -3.4349,9.99604 -7.92195,14.48309 -4.48705,4.48706 -8.56008,6.71492 -14.48309,7.92195 -2.51951,0.51344 -3.52005,0.54216 -18.10346,0.5196 -11.42845,-0.0177 -15.92886,-0.1132 -17.33253,-0.3679 z m 34.96888,-7.48746 c 2.74827,-0.74994 6.49808,-2.64688 8.33438,-4.21614 3.48346,-2.97692 5.98932,-6.9109 7.21076,-11.32025 0.57408,-2.07242 0.58642,-2.43744 0.59039,-17.4625 0.004,-13.8092 -0.0427,-15.52801 -0.46291,-17.16519 -1.71159,-6.66861 -5.82228,-11.71891 -11.85964,-14.57051 -4.03884,-1.90764 -3.56269,-1.86638 -21.54006,-1.86638 h -16.13959 l -2.51354,0.85149 c -5.99581,2.03117 -10.95717,6.61889 -13.24942,12.25159 -1.55649,3.82473 -1.60025,4.44464 -1.50384,21.30065 0.0973,17.01196 0.0455,16.4647 1.93655,20.47383 3.16739,6.71521 9.26689,11.19941 16.57191,12.18323 0.91782,0.12362 8.15767,0.20068 16.08855,0.17126 13.91141,-0.0516 14.49442,-0.0738 16.53646,-0.63108 z m -11.59532,-7.36797 c -5.91963,-1.26999 -10.64501,-5.54375 -12.51914,-11.32267 -0.93584,-2.88568 -0.98058,-7.03004 -0.1059,-9.81033 1.66244,-5.28433 5.6315,-9.30382 10.99373,-11.13343 1.80525,-0.61595 2.53935,-0.72049 5.02455,-0.71548 2.40904,0.005 3.27862,0.12527 5.04783,0.69903 3.48088,1.12887 6.40351,3.24681 8.46293,6.13282 1.50719,2.11215 2.35803,4.05333 2.87624,6.56214 0.5208,2.52137 0.52116,3.90058 0.002,6.46972 -1.01118,5.00077 -4.39643,9.44832 -8.84805,11.62456 -3.69218,1.80498 -7.22996,2.28827 -10.93387,1.49364 z m 7.58099,-7.99395 c 1.99606,-0.98265 3.40111,-2.43038 4.37544,-4.50834 0.59183,-1.26219 0.69722,-1.84777 0.69722,-3.87378 0,-2.15958 -0.0821,-2.55359 -0.86245,-4.13871 -1.00375,-2.03891 -2.43811,-3.43817 -4.52975,-4.41892 -1.26138,-0.59145 -1.84821,-0.69722 -3.86821,-0.69722 -2.02778,0 -2.60498,0.10487 -3.88845,0.70649 -1.92267,0.90123 -3.76425,2.74281 -4.66548,4.66548 -0.60162,1.28347 -0.70649,1.86067 -0.70649,3.88845 0,2.01223 0.10665,2.60863 0.68821,3.84853 1.73812,3.70571 4.91481,5.62713 9.01812,5.45459 1.6407,-0.069 2.36335,-0.24794 3.74184,-0.92657 z M 346.4505,245.8751 c -6.95716,-1.81544 -10.34999,-10.08205 -6.69317,-16.30791 0.73833,-1.25702 2.78623,-3.27676 4.08762,-4.03142 1.67079,-0.96886 3.67856,-1.44185 5.67709,-1.40521 1.54336,0.0283 3.08121,0.36049 4.45411,1.00295 3.35608,1.5705 5.63283,4.57888 6.30836,8.33555 0.98786,5.49355 -2.71638,11.01531 -8.37902,12.49024 -1.96922,0.51292 -3.24197,0.49327 -5.45499,-0.0842 z m 4.73906,-7.44629 c 1.33197,-0.81211 1.96547,-2.01538 1.83853,-3.49212 -0.14006,-1.62937 -0.76396,-2.52845 -2.19337,-3.16075 -1.58085,-0.69928 -2.85152,-0.45047 -4.10597,0.80399 -1.31299,1.31298 -1.52898,2.58271 -0.71748,4.21782 1.00666,2.02836 3.32763,2.75942 5.17829,1.63106 z m -34.63697,-22.45163 c -6.95717,-1.81544 -10.35,-10.08205 -6.69317,-16.3079 0.73833,-1.25703 2.78622,-3.27677 4.08761,-4.03143 2.96106,-1.71706 6.98049,-1.87665 10.1312,-0.40225 3.35608,1.5705 5.63283,4.57888 6.30836,8.33554 0.98787,5.49355 -2.71638,11.01531 -8.37901,12.49024 -1.96923,0.51292 -3.24198,0.49327 -5.45499,-0.0842 z m 4.73905,-7.44629 c 1.33198,-0.81211 1.96547,-2.01537 1.83853,-3.49212 -0.14006,-1.62937 -0.76396,-2.52845 -2.19337,-3.16074 -1.58085,-0.69929 -2.85151,-0.45048 -4.10597,0.80398 -1.31299,1.31299 -1.52898,2.58271 -0.71748,4.21783 1.00666,2.02836 3.32763,2.75942 5.17829,1.63105 z"
         id="path845"
         inkscape:connector-curvature="0"
         transform="matrix(0.33012412,0,0,0.33012412,-101.73368,-64.047227)" />
    </g>
  </g>
</svg>
