<?xml version="1.0" encoding="UTF-8" standalone="no"?>
<svg
   xmlns:dc="http://purl.org/dc/elements/1.1/"
   xmlns:cc="http://creativecommons.org/ns#"
   xmlns:rdf="http://www.w3.org/1999/02/22-rdf-syntax-ns#"
   xmlns:svg="http://www.w3.org/2000/svg"
   xmlns="http://www.w3.org/2000/svg"
   xmlns:sodipodi="http://sodipodi.sourceforge.net/DTD/sodipodi-0.dtd"
   xmlns:inkscape="http://www.inkscape.org/namespaces/inkscape"
   width="16"
   height="16"
   viewBox="0 0 32 32"
   version="1.1"
   id="svg3739"
   sodipodi:docname="dep-update.svg"
   inkscape:version="0.92.4 (5da689c313, 2019-01-14)">
  <metadata
     id="metadata3745">
    <rdf:RDF>
      <cc:Work
         rdf:about="">
        <dc:format>image/svg+xml</dc:format>
        <dc:type
           rdf:resource="http://purl.org/dc/dcmitype/StillImage" />
        <dc:title />
      </cc:Work>
    </rdf:RDF>
  </metadata>
  <defs
     id="defs3743" />
  <sodipodi:namedview
     pagecolor="#ffffff"
     bordercolor="#666666"
     borderopacity="1"
     objecttolerance="10"
     gridtolerance="10"
     guidetolerance="10"
     inkscape:pageopacity="0"
     inkscape:pageshadow="2"
     inkscape:window-width="2236"
     inkscape:window-height="1266"
     id="namedview3741"
     showgrid="false"
     inkscape:zoom="53.4375"
     inkscape:cx="4.9590643"
     inkscape:cy="8"
     inkscape:window-x="505"
     inkscape:window-y="139"
     inkscape:window-maximized="0"
     inkscape:current-layer="svg3739" />
  <g
     id="g3732">
    <path
       d="M19.52,5.65H12.84A6.91,6.91,0,0,0,5.9,12.57v6.68a6.91,6.91,0,0,0,6.91,6.91h6.68a6.91,6.91,0,0,0,6.91-6.92V12.57A6.91,6.91,0,0,0,19.52,5.65Zm-6.75,7.47A2,2,0,1,1,13,10.6,2,2,0,0,1,12.77,13.12Zm6.63,9.69a3.5,3.5,0,1,1,3.5-3.5A3.5,3.5,0,0,1,19.4,22.81Z"
       style="fill:#474747;fill-opacity:1"
       id="path3730" />
  </g>
  <g
     id="Oval"
     style="fill: #ccc;">
    <circle
       class="cls-1"
       cx="3.65"
       cy="4.06"
       r="2"
       id="circle3734" />
    <circle
       class="cls-1"
       cx="3.65"
       cy="4.06"
       r="2.75"
       id="circle3736"
       style="fill:#474747;fill-opacity:1" />
  </g>
  <ellipse
     style="fill:#3c87c3;fill-opacity:1;stroke-width:2.91830111"
     id="path4576"
     cx="10.741521"
     cy="10.479532"
     rx="8.7514086"
     ry="8.8886356" />
</svg>
